<?xml version="1.0" encoding="UTF-8"?>
<svg id="Layer_2" data-name="Layer 2" xmlns="http://www.w3.org/2000/svg" viewBox="0 0 48.5 48.78">
  <defs>
    <style>
      .cls-1 {
        fill: #fff;
      }
    </style>
  </defs>
  <g id="Layer_2-2" data-name="Layer 2">
    <path d="M48.5,24.39h0s0-.02,0-.02,0-.02,0-.03c0-2.66-2.16-4.81-4.82-4.8-.08,0-.15,0-.23.01.07-.03.14-.06.21-.1,2.35-1.24,3.25-4.15,2.01-6.5h0c-1.24-2.35-4.15-3.25-6.5-2.01-.07.04-.13.08-.2.12.05-.06.1-.12.14-.18,1.51-2.19.96-5.19-1.23-6.69h0c-2.19-1.51-5.19-.96-6.69,1.23-.04.06-.08.13-.12.2.01-.08.03-.15.04-.23.31-2.64-1.57-5.03-4.21-5.35-2.64-.31-5.03,1.57-5.35,4.21,0,.07,0,.15-.02.22-.02-.07-.04-.15-.07-.22-.95-2.48-3.73-3.73-6.21-2.78s-3.73,3.73-2.78,6.21c.03.07.06.14.09.21-.05-.05-.11-.11-.16-.16-1.99-1.76-5.03-1.57-6.79.42-1.76,1.99-1.57,5.03.42,6.79.06.05.12.1.18.14-.08-.02-.15-.05-.23-.07-2.58-.63-5.19.95-5.82,3.53-.63,2.58.95,5.19,3.53,5.82.07.02.15.03.22.04-.07.01-.15.02-.22.04-2.58.64-4.16,3.24-3.52,5.83.64,2.58,3.24,4.16,5.83,3.52.08-.02.15-.05.23-.07-.06.05-.12.09-.18.14-1.99,1.76-2.17,4.81-.4,6.79,1.76,1.99,4.81,2.17,6.79.4.06-.05.11-.11.16-.16-.03.07-.07.14-.09.22-.94,2.49.31,5.26,2.8,6.21h0c2.49.94,5.26-.31,6.21-2.8.03-.07.05-.15.07-.23,0,.08,0,.15.02.23.32,2.64,2.72,4.52,5.36,4.2,2.64-.32,4.52-2.72,4.2-5.36,0-.08-.03-.15-.04-.23.04.07.08.13.12.2,1.51,2.19,4.51,2.73,6.7,1.22s2.73-4.51,1.22-6.7c-.04-.06-.09-.12-.14-.18.07.04.13.08.2.12,2.35,1.24,5.26.33,6.5-2.02,1.24-2.35.33-5.26-2.02-6.5-.07-.04-.14-.07-.21-.1.08,0,.15.01.23.01,2.66,0,4.81-2.15,4.81-4.81Z"/>
    <path class="cls-1" d="M27.99,12.45c-3.9,0-7.06,3.16-7.06,7.06v9.77c0,1.87-1.52,3.39-3.4,3.39s-3.39-1.52-3.39-3.39v-3.67h-3.66v3.67c0,3.89,3.16,7.05,7.06,7.05s7.06-3.16,7.06-7.06v-2.56h6.79v9.22h3.66v-16.42c0-3.9-3.16-7.06-7.06-7.06ZM31.38,23.05h-6.79v-3.54c0-1.88,1.52-3.39,3.39-3.39s3.4,1.52,3.4,3.39v3.54Z"/>
  </g>
</svg>
